<?xml version="1.0" encoding="UTF-8"?>
<svg width="200px" height="191px" viewBox="0 0 200 191" version="1.1" xmlns="http://www.w3.org/2000/svg" xmlns:xlink="http://www.w3.org/1999/xlink">
    <title>travel</title>
    <g id="Page-1" stroke="none" stroke-width="1" fill="none" fill-rule="evenodd">
        <g id="Artboard-Copy-3" transform="translate(-112.000000, -116.000000)" fill-rule="nonzero">
            <g id="travel" transform="translate(112.000000, 116.000000)">
                <path d="M52.6684105,20.0643863 C47.3150905,18.8647887 41.7050302,19.8386318 37.0692153,22.7722334 L23.2309859,31.5291751 C17.6285714,35.0744467 18.0406439,43.3778672 23.967002,46.350503 L71.5758551,70.232998 L94.8756539,29.5219316 L52.6684105,20.0643863 Z" id="Path" fill="#78CBEC"></path>
                <path d="M143.996781,111.393159 L134.539235,69.1859155 L93.828169,92.4857143 L117.710664,140.094567 C120.6833,146.020926 128.98672,146.432998 132.531992,140.830584 L141.288934,126.992354 C144.222535,122.356539 145.196378,116.746076 143.996781,111.393159 L143.996781,111.393159 Z" id="Path" fill="#90D3F1"></path>
                <polygon id="Path" fill="#78CBEC" points="134.539235 69.1859155 93.828169 92.4857143 102.508652 109.790342 137.544467 82.5975855"></polygon>
                <path d="M157.90664,6.15452716 C151.534809,-0.217303823 141.73159,-1.64144869 133.81006,2.65432596 L111.530785,14.7356137 C104.922736,18.3191147 99.1557344,23.2712274 94.6148893,29.2619718 L38.9963783,100.922334 L17.5275654,99.0555332 C15.4921529,98.8784708 13.4828974,99.6104628 12.0386318,101.055131 L2.0305835,111.063179 C-1.77062374,114.863984 0.0285714286,121.358551 5.24346076,122.662374 L28.9754527,128.595171 C32.171831,129.394366 34.6672032,131.889738 35.4663984,135.086117 L41.3991952,158.818109 C42.7030181,164.032998 49.1971831,165.831791 52.9983903,162.030986 L63.0064386,152.022938 C64.4511066,150.57827 65.1830986,148.569014 65.0060362,146.534004 L63.1392354,125.065191 L134.799598,69.4462777 C140.78994,64.9054326 145.742455,59.1384306 149.325956,52.5303823 L161.407243,30.2511066 C165.702616,22.3295775 164.278471,12.5263581 157.90664,6.15452716 Z" id="Path" fill="#C1E9FA"></path>
                <circle id="Oval" fill="#3C40C6" cx="153.872032" cy="144.02173" r="46.1279678"></circle>
                <path d="M164.260765,144.02173 L175.769014,132.513481 C178.637827,129.644668 178.637827,124.993159 175.769014,122.124346 C172.900201,119.255533 168.248692,119.255533 165.379879,122.124346 L153.87163,133.632596 L142.36338,122.124346 C139.494567,119.255533 134.843058,119.255533 131.974245,122.124346 C129.105433,124.993159 129.105433,129.644668 131.974245,132.513481 L143.482495,144.02173 L131.974245,155.52998 C129.105433,158.398793 129.105433,163.050302 131.974245,165.919115 C134.843058,168.787928 139.494567,168.787928 142.36338,165.919115 L153.87163,154.410865 L165.379879,165.919115 C168.248692,168.787928 172.900201,168.787928 175.769014,165.919115 C178.637827,163.050302 178.637827,158.398793 175.769014,155.52998 L164.260765,144.02173 Z" id="Path" fill="#FFFFFF"></path>
                <path d="M90.265996,52.8430584 C112.387928,30.7215292 136.592354,14.7118712 158.206439,6.4668008 C158.10664,6.36257545 158.008853,6.25714286 157.90664,6.15452716 C151.534809,-0.217303823 141.73159,-1.64144869 133.81006,2.65432596 L111.530785,14.7356137 C104.922736,18.3191147 99.1557344,23.2712274 94.6148893,29.2619718 L38.9963783,100.922334 L17.5275654,99.0555332 C15.4921529,98.8788732 13.4828974,99.6104628 12.0386318,101.055131 L2.0305835,111.063581 C-1.77022133,114.864386 0.0285714286,121.358954 5.24346076,122.662777 L28.9754527,128.595976 C32.171831,129.395171 34.6672032,131.890543 35.4663984,135.086922 L37.8760563,144.725151 C40.5179074,118.467203 59.472837,83.6362173 90.265996,52.8430584 Z" id="Path" fill="#90D3F1"></path>
                <path d="M122.017304,140.282897 C122.017304,123.251509 130.269618,108.216901 142.85996,99.2205231 C134.942857,101.158551 127.438632,105.219316 121.254326,111.404024 C103.240241,129.418511 103.240241,158.62495 121.254326,176.639034 C132.338833,187.723541 147.660765,191.984306 162.006036,189.427767 C139.298592,185.4 122.017304,164.931187 122.017304,140.282897 L122.017304,140.282897 Z" id="Path" fill="#575FCF"></path>
            </g>
        </g>
    </g>
</svg>