<?xml version="1.0" encoding="iso-8859-1"?>
<!-- Generator: Adobe Illustrator 19.0.0, SVG Export Plug-In . SVG Version: 6.00 Build 0)  -->
<svg version="1.1" id="Capa_1" xmlns="http://www.w3.org/2000/svg" xmlns:xlink="http://www.w3.org/1999/xlink" x="0px" y="0px"
	 viewBox="0 0 512 512" style="enable-background:new 0 0 512 512;" xml:space="preserve">
<g>
	<g>
		<path d="M512,278.58H344.884v-20.646c0-9.038-1.36-17.763-3.879-25.986h68.897v-30H324.98
			c-13.312-16.371-32.322-27.928-53.98-31.625v-45.971h-30v45.971c-21.658,3.697-40.668,15.254-53.98,31.625h-84.922v30h68.898
			c-2.519,8.223-3.879,16.949-3.879,25.986v20.646H0v30h73.517c-2.499,4.601-3.919,9.868-3.919,15.461
			c0,17.921,14.579,32.5,32.5,32.5c17.921,0,32.5-14.579,32.5-32.5c0-5.593-1.421-10.86-3.919-15.461h36.983
			c4.901,44.408,42.646,79.068,88.339,79.068c45.694,0,83.438-34.66,88.339-79.068h36.982c-2.499,4.601-3.919,9.868-3.919,15.461
			c0,17.921,14.579,32.5,32.5,32.5c17.921,0,32.5-14.579,32.5-32.5c0-5.593-1.421-10.86-3.919-15.461H512V278.58z M289.701,268.929
			h-67.402v-30h67.402V268.929z"/>
	</g>
</g>
<g>
</g>
<g>
</g>
<g>
</g>
<g>
</g>
<g>
</g>
<g>
</g>
<g>
</g>
<g>
</g>
<g>
</g>
<g>
</g>
<g>
</g>
<g>
</g>
<g>
</g>
<g>
</g>
<g>
</g>
</svg>
