<?xml version="1.0" encoding="UTF-8"?>
<svg width="50px" height="50px" viewBox="0 0 50 50" version="1.1" xmlns="http://www.w3.org/2000/svg" xmlns:xlink="http://www.w3.org/1999/xlink">
    <title>plane</title>
    <g id="Page-1" stroke="none" stroke-width="1" fill="none" fill-rule="evenodd">
        <g id="Artboard-Copy-2" transform="translate(-187.000000, -186.000000)" fill="#000000" fill-rule="nonzero">
            <g id="plane" transform="translate(187.000000, 186.000000)">
                <path d="M49.4484375,0.5515625 C45.6148437,-0.726953125 41.4595703,0.254199219 38.6019531,3.11181641 L28.1620117,13.5515625 L6.41015625,4.22949219 L2.26689453,8.37255859 L19.8755859,21.8379883 L10.3580078,31.3555664 L4.14316406,29.2837891 L0,33.4271484 L10.3580078,39.6419922 L16.5728516,50 L20.7160156,45.8567383 L18.6444336,39.6420898 L28.1620117,30.1245117 L41.6274414,47.7332031 L45.7706055,43.5899414 L36.4485352,21.8380859 L46.8883789,11.3982422 C49.7459961,8.540625 50.7271484,4.38535156 49.4484375,0.5515625 Z" id="Path"></path>
                <path d="M46.8063477,25.98125 C45.662207,24.8370117 43.8073242,24.8370117 42.6630859,25.98125 L41.7874023,26.8569336 L44.2732422,32.6575195 L46.8063477,30.1244141 C47.9503906,28.9801758 47.9503906,27.1253906 46.8063477,25.98125 Z" id="Path"></path>
                <path d="M24.01875,3.19345703 C22.874707,2.04921875 21.0197266,2.04921875 19.8755859,3.19345703 L17.3424805,5.72666016 L23.1430664,8.2125 L24.01875,7.33662109 C25.1629883,6.19257813 25.1629883,4.33769531 24.01875,3.19345703 Z" id="Path"></path>
            </g>
        </g>
    </g>
</svg>